<?xml version="1.0" encoding="UTF-8" standalone="no"?>
<!DOCTYPE svg PUBLIC "-//W3C//DTD SVG 1.1//EN"
 "http://www.w3.org/Graphics/SVG/1.1/DTD/svg11.dtd">
<!-- Generated by graphviz version 2.38.0 (20140413.2041)
 -->
<!-- Title: %3 Pages: 1 -->
<svg width="286pt" height="404pt"
 viewBox="0.00 0.00 285.68 404.00" xmlns="http://www.w3.org/2000/svg" xmlns:xlink="http://www.w3.org/1999/xlink">
<g id="graph0" class="graph" transform="scale(1 1) rotate(0) translate(4 400)">
<title>%3</title>
<polygon fill="white" stroke="none" points="-4,4 -4,-400 281.684,-400 281.684,4 -4,4"/>
<!-- 0 -->
<g id="node1" class="node"><title>0</title>
<ellipse fill="none" stroke="black" cx="54.9365" cy="-378" rx="27" ry="18"/>
<text text-anchor="middle" x="54.9365" y="-374.3" font-family="Times,serif" font-size="14.00">0</text>
</g>
<!-- 3 -->
<g id="node4" class="node"><title>3</title>
<ellipse fill="none" stroke="black" cx="164.937" cy="-306" rx="27" ry="18"/>
<text text-anchor="middle" x="164.937" y="-302.3" font-family="Times,serif" font-size="14.00">3</text>
</g>
<!-- 0&#45;&#45;3 -->
<g id="edge1" class="edge"><title>0&#45;&#45;3</title>
<path fill="none" stroke="black" d="M74.0971,-364.807C94.2868,-351.959 125.889,-331.848 145.996,-319.053"/>
</g>
<!-- 4 -->
<g id="node5" class="node"><title>4</title>
<ellipse fill="none" stroke="black" cx="54.9365" cy="-306" rx="27" ry="18"/>
<text text-anchor="middle" x="54.9365" y="-302.3" font-family="Times,serif" font-size="14.00">4</text>
</g>
<!-- 0&#45;&#45;4 -->
<g id="edge2" class="edge"><title>0&#45;&#45;4</title>
<path fill="none" stroke="black" d="M54.9365,-359.697C54.9365,-348.846 54.9365,-334.917 54.9365,-324.104"/>
</g>
<!-- 5 -->
<g id="node6" class="node"><title>5</title>
<ellipse fill="none" stroke="black" cx="236.937" cy="-306" rx="27" ry="18"/>
<text text-anchor="middle" x="236.937" y="-302.3" font-family="Times,serif" font-size="14.00">5</text>
</g>
<!-- 0&#45;&#45;5 -->
<g id="edge3" class="edge"><title>0&#45;&#45;5</title>
<path fill="none" stroke="black" d="M78.7127,-369.129C107.825,-359.319 158.495,-341.679 200.937,-324 205.786,-321.98 210.928,-319.661 215.763,-317.399"/>
</g>
<!-- 7 -->
<g id="node8" class="node"><title>7</title>
<ellipse fill="none" stroke="black" cx="77.9365" cy="-162" rx="27" ry="18"/>
<text text-anchor="middle" x="77.9365" y="-158.3" font-family="Times,serif" font-size="14.00">7</text>
</g>
<!-- 0&#45;&#45;7 -->
<g id="edge4" class="edge"><title>0&#45;&#45;7</title>
<path fill="none" stroke="black" d="M41.1862,-362.069C32.9757,-352.1 23.3175,-338.247 18.9365,-324 14.2337,-308.707 15.4371,-303.613 18.9365,-288 28.3315,-246.085 53.4337,-201.672 67.6843,-178.747"/>
</g>
<!-- 8 -->
<g id="node9" class="node"><title>8</title>
<ellipse fill="none" stroke="black" cx="38.9365" cy="-90" rx="27" ry="18"/>
<text text-anchor="middle" x="38.9365" y="-86.3" font-family="Times,serif" font-size="14.00">8</text>
</g>
<!-- 0&#45;&#45;8 -->
<g id="edge5" class="edge"><title>0&#45;&#45;8</title>
<path fill="none" stroke="black" d="M38.6367,-363.065C28.5319,-353.3 16.4591,-339.298 10.9365,-324 -17.0084,-246.59 16.5806,-146.272 31.9944,-107.395"/>
</g>
<!-- 1 -->
<g id="node2" class="node"><title>1</title>
<ellipse fill="none" stroke="black" cx="226.937" cy="-378" rx="27" ry="18"/>
<text text-anchor="middle" x="226.937" y="-374.3" font-family="Times,serif" font-size="14.00">1</text>
</g>
<!-- 1&#45;&#45;3 -->
<g id="edge6" class="edge"><title>1&#45;&#45;3</title>
<path fill="none" stroke="black" d="M213.788,-362.155C203.266,-350.276 188.583,-333.697 178.066,-321.824"/>
</g>
<!-- 1&#45;&#45;4 -->
<g id="edge7" class="edge"><title>1&#45;&#45;4</title>
<path fill="none" stroke="black" d="M204.451,-367.849C171.487,-354.433 110.395,-329.57 77.428,-316.154"/>
</g>
<!-- 1&#45;&#45;5 -->
<g id="edge8" class="edge"><title>1&#45;&#45;5</title>
<path fill="none" stroke="black" d="M229.357,-360.055C230.906,-349.211 232.91,-335.183 234.469,-324.275"/>
</g>
<!-- 6 -->
<g id="node7" class="node"><title>6</title>
<ellipse fill="none" stroke="black" cx="210.937" cy="-234" rx="27" ry="18"/>
<text text-anchor="middle" x="210.937" y="-230.3" font-family="Times,serif" font-size="14.00">6</text>
</g>
<!-- 1&#45;&#45;6 -->
<g id="edge9" class="edge"><title>1&#45;&#45;6</title>
<path fill="none" stroke="black" d="M243.497,-363.639C254.147,-353.922 267.054,-339.751 272.937,-324 278.534,-309.011 279.632,-302.532 272.937,-288 264.403,-269.48 245.853,-255.025 231.254,-245.922"/>
</g>
<!-- 2 -->
<g id="node3" class="node"><title>2</title>
<ellipse fill="none" stroke="black" cx="145.937" cy="-378" rx="27" ry="18"/>
<text text-anchor="middle" x="145.937" y="-374.3" font-family="Times,serif" font-size="14.00">2</text>
</g>
<!-- 2&#45;&#45;3 -->
<g id="edge10" class="edge"><title>2&#45;&#45;3</title>
<path fill="none" stroke="black" d="M150.536,-360.055C153.523,-349.049 157.401,-334.764 160.38,-323.789"/>
</g>
<!-- 2&#45;&#45;4 -->
<g id="edge11" class="edge"><title>2&#45;&#45;4</title>
<path fill="none" stroke="black" d="M128.82,-363.834C112.551,-351.319 88.2201,-332.603 71.9762,-320.107"/>
</g>
<!-- 2&#45;&#45;5 -->
<g id="edge12" class="edge"><title>2&#45;&#45;5</title>
<path fill="none" stroke="black" d="M163.053,-363.834C179.322,-351.319 203.653,-332.603 219.897,-320.107"/>
</g>
<!-- 2&#45;&#45;7 -->
<g id="edge13" class="edge"><title>2&#45;&#45;7</title>
<path fill="none" stroke="black" d="M140.561,-360.296C137.209,-349.864 132.81,-336.153 128.937,-324 112.196,-271.482 92.5383,-209.271 83.2765,-179.927"/>
</g>
<!-- 3&#45;&#45;6 -->
<g id="edge14" class="edge"><title>3&#45;&#45;6</title>
<path fill="none" stroke="black" d="M175.375,-289.116C182.903,-277.66 193.021,-262.263 200.54,-250.821"/>
</g>
<!-- 9 -->
<g id="node10" class="node"><title>9</title>
<ellipse fill="none" stroke="black" cx="155.937" cy="-18" rx="27" ry="18"/>
<text text-anchor="middle" x="155.937" y="-14.3" font-family="Times,serif" font-size="14.00">9</text>
</g>
<!-- 3&#45;&#45;9 -->
<g id="edge15" class="edge"><title>3&#45;&#45;9</title>
<path fill="none" stroke="black" d="M164.4,-287.966C162.804,-237.218 158.089,-87.4066 156.481,-36.3065"/>
</g>
<!-- 4&#45;&#45;8 -->
<g id="edge16" class="edge"><title>4&#45;&#45;8</title>
<path fill="none" stroke="black" d="M52.7935,-288.049C49.8452,-264.043 44.601,-218.745 41.9365,-180 40.2182,-155.014 39.4733,-126.01 39.1579,-108.08"/>
</g>
<!-- 5&#45;&#45;6 -->
<g id="edge17" class="edge"><title>5&#45;&#45;6</title>
<path fill="none" stroke="black" d="M230.775,-288.411C226.69,-277.414 221.347,-263.027 217.235,-251.956"/>
</g>
<!-- 6&#45;&#45;7 -->
<g id="edge18" class="edge"><title>6&#45;&#45;7</title>
<path fill="none" stroke="black" d="M190.447,-222.216C165.526,-209.1 123.698,-187.085 98.6687,-173.912"/>
</g>
<!-- 6&#45;&#45;9 -->
<g id="edge19" class="edge"><title>6&#45;&#45;9</title>
<path fill="none" stroke="black" d="M206.677,-216.066C199.281,-186.713 183.552,-124.489 169.937,-72 166.83,-60.0243 163.268,-46.5441 160.515,-36.1756"/>
</g>
<!-- 7&#45;&#45;8 -->
<g id="edge20" class="edge"><title>7&#45;&#45;8</title>
<path fill="none" stroke="black" d="M68.8911,-144.765C62.5906,-133.456 54.2227,-118.437 47.9329,-107.147"/>
</g>
<!-- 8&#45;&#45;9 -->
<g id="edge21" class="edge"><title>8&#45;&#45;9</title>
<path fill="none" stroke="black" d="M58.5197,-77.2836C80.1172,-64.362 114.666,-43.6915 136.289,-30.7547"/>
</g>
</g>
</svg>
